# xmcd
#
# Track frame offsets:
#	150
#	16960
#	36168
#	53684
#	76395
#	93425
#	107798
#	126854
#	143410
#	162252
#	179981
#	198880
#	218033
#	231505
#	249342
#
# Disc length: 3631 seconds
#
# Revision: 1
# Processed by: cddbd v1.5.1PL0 Copyright (c) Steve Scherf et al.
# Submitted via: audiograbber 1.82.02
#
DISCID=ca0e2d0f
DTITLE=Various Artist - Sound Choice 8842
DYEAR=1900
DGENRE=Karaoke
TTITLE0=Toby Keith and S. Emerick - I can't take you anywhere
TTITLE1=Jimmy Wayne - I love you this much
TTITLE2=Rebecca Lynn Howard - What a shame
TTITLE3=Montgomery Gentry - Hell Yeah
TTITLE4=George Strait - Cowboys like us
TTITLE5=Randy Travis - Pray for the fish
TTITLE6=Lonestar - Walking in Memphis
TTITLE7=Patty Loveless - Lovin' all night
TTITLE8=Mark Wills - And the crowd goes wild
TTITLE9=Deric Ruttan - When you come around
TTITLE10=Josh Turner - Long black train
TTITLE11=Chris Cagle - Chicks dig it
TTITLE12=Terri Clark - I wanna do it all
TTITLE13=Jennifer Hanson - Half a heart tattoo
TTITLE14=Dusty Drake - Smaller pieces
EXTD=
EXTT0=
EXTT1=
EXTT2=
EXTT3=
EXTT4=
EXTT5=
EXTT6=
EXTT7=
EXTT8=
EXTT9=
EXTT10=
EXTT11=
EXTT12=
EXTT13=
EXTT14=
PLAYORDER=
